<mxfile host="Electron" modified="2024-02-04T19:06:06.241Z" agent="Mozilla/5.0 (Windows NT 10.0; Win64; x64) AppleWebKit/537.36 (KHTML, like Gecko) draw.io/23.0.2 Chrome/120.0.6099.109 Electron/28.1.0 Safari/537.36" etag="nwud774-q93rb2CccOtB" version="23.0.2" type="device">
  <diagram name="Page-1" id="bP2DMq94btarNAkXu-eU">
    <mxGraphModel dx="1687" dy="993" grid="1" gridSize="10" guides="1" tooltips="1" connect="1" arrows="1" fold="1" page="1" pageScale="1" pageWidth="1600" pageHeight="1200" math="0" shadow="0">
      <root>
        <mxCell id="0" />
        <mxCell id="1" parent="0" />
        <mxCell id="2IlYheNpuPl2yZyPqZm3-9" value="" style="edgeStyle=orthogonalEdgeStyle;rounded=0;orthogonalLoop=1;jettySize=auto;html=1;" parent="1" source="2IlYheNpuPl2yZyPqZm3-1" target="2IlYheNpuPl2yZyPqZm3-8" edge="1">
          <mxGeometry relative="1" as="geometry" />
        </mxCell>
        <mxCell id="2IlYheNpuPl2yZyPqZm3-17" value="Start in new thread" style="edgeLabel;html=1;align=center;verticalAlign=middle;resizable=0;points=[];" parent="2IlYheNpuPl2yZyPqZm3-9" vertex="1" connectable="0">
          <mxGeometry x="-0.182" y="2" relative="1" as="geometry">
            <mxPoint as="offset" />
          </mxGeometry>
        </mxCell>
        <mxCell id="2IlYheNpuPl2yZyPqZm3-11" value="" style="rounded=0;orthogonalLoop=1;jettySize=auto;html=1;" parent="1" source="2IlYheNpuPl2yZyPqZm3-1" target="2IlYheNpuPl2yZyPqZm3-10" edge="1">
          <mxGeometry relative="1" as="geometry" />
        </mxCell>
        <mxCell id="2IlYheNpuPl2yZyPqZm3-16" value="Start in new thread" style="edgeLabel;html=1;align=center;verticalAlign=middle;resizable=0;points=[];" parent="2IlYheNpuPl2yZyPqZm3-11" vertex="1" connectable="0">
          <mxGeometry x="0.566" y="-1" relative="1" as="geometry">
            <mxPoint as="offset" />
          </mxGeometry>
        </mxCell>
        <mxCell id="2IlYheNpuPl2yZyPqZm3-13" value="" style="rounded=0;orthogonalLoop=1;jettySize=auto;html=1;entryX=0;entryY=0;entryDx=0;entryDy=0;" parent="1" source="2IlYheNpuPl2yZyPqZm3-1" target="UpTqfyfh0yvxJOS-BzXf-1" edge="1">
          <mxGeometry relative="1" as="geometry">
            <mxPoint x="1225.2500000000005" y="600" as="targetPoint" />
          </mxGeometry>
        </mxCell>
        <mxCell id="2IlYheNpuPl2yZyPqZm3-18" value="Start in new thread" style="edgeLabel;html=1;align=center;verticalAlign=middle;resizable=0;points=[];" parent="2IlYheNpuPl2yZyPqZm3-13" vertex="1" connectable="0">
          <mxGeometry x="0.5739" y="-1" relative="1" as="geometry">
            <mxPoint x="1" y="-6" as="offset" />
          </mxGeometry>
        </mxCell>
        <mxCell id="2IlYheNpuPl2yZyPqZm3-49" value="" style="rounded=0;orthogonalLoop=1;jettySize=auto;html=1;entryX=0;entryY=0.5;entryDx=0;entryDy=0;" parent="1" source="2IlYheNpuPl2yZyPqZm3-1" target="UpTqfyfh0yvxJOS-BzXf-2" edge="1">
          <mxGeometry relative="1" as="geometry">
            <mxPoint x="1350" y="430" as="targetPoint" />
          </mxGeometry>
        </mxCell>
        <mxCell id="2IlYheNpuPl2yZyPqZm3-50" value="Start in new thread" style="edgeLabel;html=1;align=center;verticalAlign=middle;resizable=0;points=[];" parent="2IlYheNpuPl2yZyPqZm3-49" vertex="1" connectable="0">
          <mxGeometry x="0.148" relative="1" as="geometry">
            <mxPoint x="-34" as="offset" />
          </mxGeometry>
        </mxCell>
        <mxCell id="2IlYheNpuPl2yZyPqZm3-67" style="rounded=0;orthogonalLoop=1;jettySize=auto;html=1;entryX=1;entryY=0.5;entryDx=0;entryDy=0;" parent="1" source="2IlYheNpuPl2yZyPqZm3-1" target="2IlYheNpuPl2yZyPqZm3-66" edge="1">
          <mxGeometry relative="1" as="geometry">
            <mxPoint x="350" y="430" as="targetPoint" />
          </mxGeometry>
        </mxCell>
        <mxCell id="2IlYheNpuPl2yZyPqZm3-1" value="main" style="rounded=0;whiteSpace=wrap;html=1;fillColor=#ffe6cc;strokeColor=#d79b00;fontSize=25;" parent="1" vertex="1">
          <mxGeometry x="770" y="400" width="120" height="60" as="geometry" />
        </mxCell>
        <mxCell id="2IlYheNpuPl2yZyPqZm3-4" value="DataStorage" style="rounded=0;whiteSpace=wrap;html=1;fillColor=#dae8fc;strokeColor=#6c8ebf;fontSize=25;" parent="1" vertex="1">
          <mxGeometry x="755" y="790" width="150" height="60" as="geometry" />
        </mxCell>
        <mxCell id="2IlYheNpuPl2yZyPqZm3-21" style="edgeStyle=orthogonalEdgeStyle;rounded=0;orthogonalLoop=1;jettySize=auto;html=1;entryX=0.5;entryY=0;entryDx=0;entryDy=0;" parent="1" source="2IlYheNpuPl2yZyPqZm3-8" target="2IlYheNpuPl2yZyPqZm3-4" edge="1">
          <mxGeometry relative="1" as="geometry" />
        </mxCell>
        <mxCell id="2IlYheNpuPl2yZyPqZm3-22" value="Save Sensor data" style="edgeLabel;html=1;align=center;verticalAlign=middle;resizable=0;points=[];" parent="2IlYheNpuPl2yZyPqZm3-21" vertex="1" connectable="0">
          <mxGeometry x="0.001" y="2" relative="1" as="geometry">
            <mxPoint as="offset" />
          </mxGeometry>
        </mxCell>
        <mxCell id="2IlYheNpuPl2yZyPqZm3-27" value="" style="edgeStyle=orthogonalEdgeStyle;rounded=0;orthogonalLoop=1;jettySize=auto;html=1;" parent="1" source="2IlYheNpuPl2yZyPqZm3-8" target="2IlYheNpuPl2yZyPqZm3-26" edge="1">
          <mxGeometry relative="1" as="geometry" />
        </mxCell>
        <mxCell id="2IlYheNpuPl2yZyPqZm3-28" value="Drive the card" style="edgeLabel;html=1;align=center;verticalAlign=middle;resizable=0;points=[];" parent="2IlYheNpuPl2yZyPqZm3-27" vertex="1" connectable="0">
          <mxGeometry x="-0.0391" y="-1" relative="1" as="geometry">
            <mxPoint as="offset" />
          </mxGeometry>
        </mxCell>
        <mxCell id="2IlYheNpuPl2yZyPqZm3-40" style="edgeStyle=orthogonalEdgeStyle;rounded=0;orthogonalLoop=1;jettySize=auto;html=1;exitX=0;exitY=0.5;exitDx=0;exitDy=0;" parent="1" source="UpTqfyfh0yvxJOS-BzXf-1" target="2IlYheNpuPl2yZyPqZm3-8" edge="1">
          <mxGeometry relative="1" as="geometry" />
        </mxCell>
        <mxCell id="2IlYheNpuPl2yZyPqZm3-43" value="Get Timeline Milestones" style="edgeLabel;html=1;align=center;verticalAlign=middle;resizable=0;points=[];" parent="2IlYheNpuPl2yZyPqZm3-40" vertex="1" connectable="0">
          <mxGeometry x="-0.2424" y="-2" relative="1" as="geometry">
            <mxPoint as="offset" />
          </mxGeometry>
        </mxCell>
        <mxCell id="2IlYheNpuPl2yZyPqZm3-8" value="SoundCardController" style="rounded=0;whiteSpace=wrap;html=1;fillColor=#f8cecc;strokeColor=#b85450;fontSize=25;" parent="1" vertex="1">
          <mxGeometry x="710" y="570" width="240" height="60" as="geometry" />
        </mxCell>
        <mxCell id="2IlYheNpuPl2yZyPqZm3-19" style="edgeStyle=orthogonalEdgeStyle;rounded=0;orthogonalLoop=1;jettySize=auto;html=1;entryX=0;entryY=0.5;entryDx=0;entryDy=0;" parent="1" source="2IlYheNpuPl2yZyPqZm3-10" target="2IlYheNpuPl2yZyPqZm3-4" edge="1">
          <mxGeometry relative="1" as="geometry">
            <Array as="points">
              <mxPoint x="405" y="820" />
            </Array>
          </mxGeometry>
        </mxCell>
        <mxCell id="2IlYheNpuPl2yZyPqZm3-20" value="Save Event data" style="edgeLabel;html=1;align=center;verticalAlign=middle;resizable=0;points=[];" parent="2IlYheNpuPl2yZyPqZm3-19" vertex="1" connectable="0">
          <mxGeometry x="-0.4667" y="1" relative="1" as="geometry">
            <mxPoint x="-1" y="-18" as="offset" />
          </mxGeometry>
        </mxCell>
        <mxCell id="2IlYheNpuPl2yZyPqZm3-33" value="" style="edgeStyle=orthogonalEdgeStyle;rounded=0;orthogonalLoop=1;jettySize=auto;html=1;" parent="1" source="2IlYheNpuPl2yZyPqZm3-10" target="2IlYheNpuPl2yZyPqZm3-32" edge="1">
          <mxGeometry relative="1" as="geometry" />
        </mxCell>
        <mxCell id="2IlYheNpuPl2yZyPqZm3-34" value="Drive the camera" style="edgeLabel;html=1;align=center;verticalAlign=middle;resizable=0;points=[];" parent="2IlYheNpuPl2yZyPqZm3-33" vertex="1" connectable="0">
          <mxGeometry x="-0.0603" relative="1" as="geometry">
            <mxPoint as="offset" />
          </mxGeometry>
        </mxCell>
        <mxCell id="2IlYheNpuPl2yZyPqZm3-39" style="edgeStyle=orthogonalEdgeStyle;rounded=0;orthogonalLoop=1;jettySize=auto;html=1;exitX=0.5;exitY=1;exitDx=0;exitDy=0;" parent="1" source="UpTqfyfh0yvxJOS-BzXf-1" target="2IlYheNpuPl2yZyPqZm3-10" edge="1">
          <mxGeometry relative="1" as="geometry">
            <Array as="points">
              <mxPoint x="1240" y="870" />
              <mxPoint x="340" y="870" />
            </Array>
            <mxPoint x="980" y="890" as="sourcePoint" />
          </mxGeometry>
        </mxCell>
        <mxCell id="2IlYheNpuPl2yZyPqZm3-42" value="Get Timeline Milestones" style="edgeLabel;html=1;align=center;verticalAlign=middle;resizable=0;points=[];" parent="2IlYheNpuPl2yZyPqZm3-39" vertex="1" connectable="0">
          <mxGeometry x="0.2984" y="1" relative="1" as="geometry">
            <mxPoint y="1" as="offset" />
          </mxGeometry>
        </mxCell>
        <mxCell id="2IlYheNpuPl2yZyPqZm3-10" value="CameraController" style="rounded=0;whiteSpace=wrap;html=1;fillColor=#f8cecc;strokeColor=#b85450;fontSize=25;" parent="1" vertex="1">
          <mxGeometry x="300" y="590" width="210" height="60" as="geometry" />
        </mxCell>
        <mxCell id="2IlYheNpuPl2yZyPqZm3-30" value="" style="rounded=0;orthogonalLoop=1;jettySize=auto;html=1;" parent="1" source="2IlYheNpuPl2yZyPqZm3-12" edge="1">
          <mxGeometry relative="1" as="geometry">
            <mxPoint x="1295.0000000000005" y="510" as="targetPoint" />
          </mxGeometry>
        </mxCell>
        <mxCell id="2IlYheNpuPl2yZyPqZm3-31" value="Drive the heaters" style="edgeLabel;html=1;align=center;verticalAlign=middle;resizable=0;points=[];" parent="2IlYheNpuPl2yZyPqZm3-30" vertex="1" connectable="0">
          <mxGeometry x="0.4303" y="-2" relative="1" as="geometry">
            <mxPoint x="-2" y="24" as="offset" />
          </mxGeometry>
        </mxCell>
        <mxCell id="2IlYheNpuPl2yZyPqZm3-26" value="sound_card_driver" style="rounded=0;whiteSpace=wrap;html=1;fillColor=#f8cecc;strokeColor=#b85450;fontSize=25;" parent="1" vertex="1">
          <mxGeometry x="890" y="680" width="210" height="30" as="geometry" />
        </mxCell>
        <mxCell id="2IlYheNpuPl2yZyPqZm3-32" value="camera_driver" style="rounded=0;whiteSpace=wrap;html=1;fillColor=#f8cecc;strokeColor=#b85450;fontSize=25;" parent="1" vertex="1">
          <mxGeometry x="530" y="690" width="170" height="30" as="geometry" />
        </mxCell>
        <mxCell id="2IlYheNpuPl2yZyPqZm3-51" style="edgeStyle=orthogonalEdgeStyle;rounded=0;orthogonalLoop=1;jettySize=auto;html=1;entryX=1;entryY=0.75;entryDx=0;entryDy=0;exitX=0.25;exitY=1;exitDx=0;exitDy=0;" parent="1" source="UpTqfyfh0yvxJOS-BzXf-1" target="2IlYheNpuPl2yZyPqZm3-4" edge="1">
          <mxGeometry relative="1" as="geometry">
            <mxPoint x="1620" y="730" as="sourcePoint" />
          </mxGeometry>
        </mxCell>
        <mxCell id="2IlYheNpuPl2yZyPqZm3-52" value="Save Rocket Signals" style="edgeLabel;html=1;align=center;verticalAlign=middle;resizable=0;points=[];" parent="2IlYheNpuPl2yZyPqZm3-51" vertex="1" connectable="0">
          <mxGeometry x="-0.6744" y="-2" relative="1" as="geometry">
            <mxPoint as="offset" />
          </mxGeometry>
        </mxCell>
        <mxCell id="2IlYheNpuPl2yZyPqZm3-55" style="edgeStyle=orthogonalEdgeStyle;rounded=0;orthogonalLoop=1;jettySize=auto;html=1;entryX=0.25;entryY=1;entryDx=0;entryDy=0;" parent="1" source="2IlYheNpuPl2yZyPqZm3-4" target="UpTqfyfh0yvxJOS-BzXf-2" edge="1">
          <mxGeometry relative="1" as="geometry">
            <mxPoint x="1560" y="620" as="targetPoint" />
          </mxGeometry>
        </mxCell>
        <mxCell id="2IlYheNpuPl2yZyPqZm3-56" value="Send data to the RXSM" style="edgeLabel;html=1;align=center;verticalAlign=middle;resizable=0;points=[];" parent="2IlYheNpuPl2yZyPqZm3-55" vertex="1" connectable="0">
          <mxGeometry x="0.7797" relative="1" as="geometry">
            <mxPoint as="offset" />
          </mxGeometry>
        </mxCell>
        <mxCell id="2IlYheNpuPl2yZyPqZm3-62" style="rounded=0;orthogonalLoop=1;jettySize=auto;html=1;entryX=0.75;entryY=0;entryDx=0;entryDy=0;exitX=0.31;exitY=0.8;exitDx=0;exitDy=0;exitPerimeter=0;dashed=1;" parent="1" source="2IlYheNpuPl2yZyPqZm3-59" target="UpTqfyfh0yvxJOS-BzXf-1" edge="1">
          <mxGeometry relative="1" as="geometry">
            <mxPoint x="1412.6399999999999" y="400" as="targetPoint" />
          </mxGeometry>
        </mxCell>
        <mxCell id="2IlYheNpuPl2yZyPqZm3-63" value="Receive Signals" style="edgeLabel;html=1;align=center;verticalAlign=middle;resizable=0;points=[];" parent="2IlYheNpuPl2yZyPqZm3-62" vertex="1" connectable="0">
          <mxGeometry x="0.1773" y="1" relative="1" as="geometry">
            <mxPoint as="offset" />
          </mxGeometry>
        </mxCell>
        <mxCell id="2IlYheNpuPl2yZyPqZm3-59" value="&lt;font style=&quot;font-size: 25px;&quot;&gt;RXSM&lt;/font&gt;" style="ellipse;shape=cloud;whiteSpace=wrap;html=1;fillColor=#bac8d3;strokeColor=#23445d;" parent="1" vertex="1">
          <mxGeometry x="1220" y="200" width="170" height="120" as="geometry" />
        </mxCell>
        <mxCell id="2IlYheNpuPl2yZyPqZm3-60" style="rounded=0;orthogonalLoop=1;jettySize=auto;html=1;entryX=0.8;entryY=0.8;entryDx=0;entryDy=0;entryPerimeter=0;exitX=0.25;exitY=0;exitDx=0;exitDy=0;dashed=1;" parent="1" source="UpTqfyfh0yvxJOS-BzXf-2" target="2IlYheNpuPl2yZyPqZm3-59" edge="1">
          <mxGeometry relative="1" as="geometry">
            <mxPoint x="1485" y="400" as="sourcePoint" />
          </mxGeometry>
        </mxCell>
        <mxCell id="2IlYheNpuPl2yZyPqZm3-61" value="Send data" style="edgeLabel;html=1;align=center;verticalAlign=middle;resizable=0;points=[];" parent="2IlYheNpuPl2yZyPqZm3-60" vertex="1" connectable="0">
          <mxGeometry x="0.0595" relative="1" as="geometry">
            <mxPoint as="offset" />
          </mxGeometry>
        </mxCell>
        <mxCell id="2IlYheNpuPl2yZyPqZm3-68" style="edgeStyle=orthogonalEdgeStyle;rounded=0;orthogonalLoop=1;jettySize=auto;html=1;exitX=0.75;exitY=1;exitDx=0;exitDy=0;" parent="1" source="2IlYheNpuPl2yZyPqZm3-66" edge="1">
          <mxGeometry relative="1" as="geometry">
            <mxPoint x="755" y="800" as="targetPoint" />
            <Array as="points">
              <mxPoint x="215" y="460" />
              <mxPoint x="215" y="800" />
            </Array>
            <mxPoint x="215" y="485" as="sourcePoint" />
          </mxGeometry>
        </mxCell>
        <mxCell id="2IlYheNpuPl2yZyPqZm3-69" value="Save Event data" style="edgeLabel;html=1;align=center;verticalAlign=middle;resizable=0;points=[];" parent="2IlYheNpuPl2yZyPqZm3-68" vertex="1" connectable="0">
          <mxGeometry x="-0.4261" y="-2" relative="1" as="geometry">
            <mxPoint as="offset" />
          </mxGeometry>
        </mxCell>
        <mxCell id="2IlYheNpuPl2yZyPqZm3-66" value="MotorController" style="rounded=0;whiteSpace=wrap;html=1;fillColor=#f8cecc;strokeColor=#b85450;fontSize=25;" parent="1" vertex="1">
          <mxGeometry x="80" y="400" width="210" height="60" as="geometry" />
        </mxCell>
        <mxCell id="2IlYheNpuPl2yZyPqZm3-72" style="edgeStyle=orthogonalEdgeStyle;rounded=0;orthogonalLoop=1;jettySize=auto;html=1;entryX=0.75;entryY=0;entryDx=0;entryDy=0;exitX=0.5;exitY=0;exitDx=0;exitDy=0;" parent="1" source="UpTqfyfh0yvxJOS-BzXf-1" target="2IlYheNpuPl2yZyPqZm3-66" edge="1">
          <mxGeometry relative="1" as="geometry">
            <mxPoint x="490" y="1000" as="sourcePoint" />
            <mxPoint x="80" y="485" as="targetPoint" />
          </mxGeometry>
        </mxCell>
        <mxCell id="2IlYheNpuPl2yZyPqZm3-73" value="Get Timeline Milestones" style="edgeLabel;html=1;align=center;verticalAlign=middle;resizable=0;points=[];" parent="2IlYheNpuPl2yZyPqZm3-72" vertex="1" connectable="0">
          <mxGeometry x="0.7954" y="-2" relative="1" as="geometry">
            <mxPoint as="offset" />
          </mxGeometry>
        </mxCell>
        <mxCell id="UpTqfyfh0yvxJOS-BzXf-1" value="SignalsController" style="rounded=0;whiteSpace=wrap;html=1;fillColor=#f8cecc;strokeColor=#b85450;fontSize=25;" vertex="1" parent="1">
          <mxGeometry x="1120" y="570" width="200" height="60" as="geometry" />
        </mxCell>
        <mxCell id="UpTqfyfh0yvxJOS-BzXf-2" value="CommunicationsController" style="rounded=0;whiteSpace=wrap;html=1;fillColor=#f8cecc;strokeColor=#b85450;fontSize=25;" vertex="1" parent="1">
          <mxGeometry x="1320" y="400" width="320" height="60" as="geometry" />
        </mxCell>
        <mxCell id="UpTqfyfh0yvxJOS-BzXf-3" value="" style="edgeStyle=orthogonalEdgeStyle;rounded=0;orthogonalLoop=1;jettySize=auto;html=1;exitX=0.5;exitY=1;exitDx=0;exitDy=0;entryX=0;entryY=0.25;entryDx=0;entryDy=0;" edge="1" parent="1" target="UpTqfyfh0yvxJOS-BzXf-5" source="2IlYheNpuPl2yZyPqZm3-10">
          <mxGeometry relative="1" as="geometry">
            <mxPoint x="415" y="710" as="sourcePoint" />
          </mxGeometry>
        </mxCell>
        <mxCell id="UpTqfyfh0yvxJOS-BzXf-4" value="Drive the LED Panel" style="edgeLabel;html=1;align=center;verticalAlign=middle;resizable=0;points=[];" vertex="1" connectable="0" parent="UpTqfyfh0yvxJOS-BzXf-3">
          <mxGeometry x="-0.0603" relative="1" as="geometry">
            <mxPoint x="42" as="offset" />
          </mxGeometry>
        </mxCell>
        <mxCell id="UpTqfyfh0yvxJOS-BzXf-5" value="led_driver" style="rounded=0;whiteSpace=wrap;html=1;fillColor=#f8cecc;strokeColor=#b85450;fontSize=25;" vertex="1" parent="1">
          <mxGeometry x="530" y="730" width="170" height="30" as="geometry" />
        </mxCell>
        <mxCell id="UpTqfyfh0yvxJOS-BzXf-6" value="" style="edgeStyle=orthogonalEdgeStyle;rounded=0;orthogonalLoop=1;jettySize=auto;html=1;exitX=0.75;exitY=1;exitDx=0;exitDy=0;" edge="1" parent="1" target="UpTqfyfh0yvxJOS-BzXf-8" source="2IlYheNpuPl2yZyPqZm3-66">
          <mxGeometry relative="1" as="geometry">
            <mxPoint x="240" y="450" as="sourcePoint" />
          </mxGeometry>
        </mxCell>
        <mxCell id="UpTqfyfh0yvxJOS-BzXf-7" value="Drive the motor" style="edgeLabel;html=1;align=center;verticalAlign=middle;resizable=0;points=[];" vertex="1" connectable="0" parent="UpTqfyfh0yvxJOS-BzXf-6">
          <mxGeometry x="-0.0603" relative="1" as="geometry">
            <mxPoint as="offset" />
          </mxGeometry>
        </mxCell>
        <mxCell id="UpTqfyfh0yvxJOS-BzXf-8" value="motor_driver" style="rounded=0;whiteSpace=wrap;html=1;fillColor=#f8cecc;strokeColor=#b85450;fontSize=25;" vertex="1" parent="1">
          <mxGeometry x="250" y="520" width="170" height="30" as="geometry" />
        </mxCell>
      </root>
    </mxGraphModel>
  </diagram>
</mxfile>
